<?xml version="1.0" encoding="UTF-8" standalone="no"?>
<!DOCTYPE svg PUBLIC "-//W3C//DTD SVG 1.1//EN" "http://www.w3.org/Graphics/SVG/1.1/DTD/svg11.dtd">
<!--Generated by Intaglio, www.PurgatoryDesign.com-->
<svg version="1.1" viewBox="153,132,127,55" width="127" height="55" xmlns="http://www.w3.org/2000/svg" xmlns:xlink="http://www.w3.org/1999/xlink"><path fill="#000" d="M260.859,186 L260.859,148.656 L277.656,148.656 L277.656,186 Z"/><path fill="#000" d="M213.258,186 L213.258,134.453 L229.93,134.453 L229.93,173.312 L254.039,173.312 L254.039,186 Z"/><path fill="#000" d="M186.812,158.172 L186.812,134.453 L202.703,134.453 L202.703,165.188 C202.703,168.229,202.229,171.104,201.281,173.812 C200.333,176.521,198.846,178.888,196.82,180.914 C194.794,182.94,192.667,184.365,190.438,185.188 C187.344,186.333,183.63,186.906,179.297,186.906 C176.786,186.906,174.049,186.732,171.086,186.383 C168.122,186.034,165.643,185.339,163.648,184.297 C161.654,183.255,159.831,181.773,158.18,179.852 C156.529,177.93,155.396,175.948,154.781,173.906 C153.802,170.625,153.312,167.719,153.312,165.188 L153.312,134.453 L169.203,134.453 L169.203,158.172 C169.203,160.984,169.982,163.182,171.539,164.766 C173.096,166.349,175.26,167.141,178.031,167.141 C180.771,167.141,182.919,166.362,184.477,164.805 C186.034,163.247,186.812,161.036,186.812,158.172 Z"/><g><path fill="#000" d="M260.859,144.203 C258.328,141.339,258.656,136.656,260.859,134.453 C263.062,132.25,275.078,131.875,277.656,134.453 C280.203,137,279.484,142.375,277.656,144.203 C275.609,146.25,263,146.625,260.859,144.203"/><path fill="none" stroke="#fff" stroke-width="0.5" stroke-linecap="round" d="M269.19,145.812 L269.19,139.27 L269.19,133 M272.031,145.531 C272.031,145.531,273.125,142,273.125,139.27 C273.125,136.539,271.75,133.094,271.75,133.094 M274.75,145.031 C274.75,145.031,277,142,277,139.27 C277,136.539,275.125,133.469,275.125,133.469 M265.938,145.438 C265.938,145.438,264.734,142.77,264.734,140.039 C264.734,137.309,266.188,133.188,266.188,133.188 M262.375,144.625 C262.375,144.625,260.859,142.77,260.859,140.039 C260.859,137.309,263.25,133.688,263.25,133.688 M279.062,139.27 L270.548,139.27 L259.375,139.27 M278.594,136.75 C278.594,136.75,273.352,135.375,270.105,135.375 C266.859,135.375,259.812,136.781,259.812,136.781 M278.469,142.219 C278.469,142.219,273.2,143.93,269.871,143.93 C266.542,143.93,259.812,142.188,259.812,142.188"/><path fill="none" stroke="#fff" stroke-width="0.75" d="M260.859,144.203 C258.328,141.339,258.656,136.656,260.859,134.453 C263.062,132.25,275.078,131.875,277.656,134.453 C280.203,137,279.484,142.375,277.656,144.203 C275.609,146.25,263,146.625,260.859,144.203"/></g></svg>
